STARTFONT 2.1
FONT -Misc-Fixed-Medium-R-Normal--8-80-75-75-C-80-ISO10646-1
SIZE 8 75 75
FONTBOUNDINGBOX 8 8 0 -2
STARTPROPERTIES 2
FONT_ASCENT 6
FONT_DESCENT 2
ENDPROPERTIES
CHARS 40
STARTCHAR U+3131
ENCODING 12593
SWIDTH 800 0
DWIDTH 8 0
BBX 8 8 0 -2
BITMAP
FE
02
02
02
02
02
00
00
ENDCHAR
STARTCHAR U+3132
ENCODING 12594
SWIDTH 800 0
DWIDTH 8 0
BBX 8 8 0 -2
BITMAP
FE
12
12
12
12
12
00
00
ENDCHAR
STARTCHAR U+3134
ENCODING 12596
SWIDTH 800 0
DWIDTH 8 0
BBX 8 8 0 -2
BITMAP
80
80
80
80
80
FE
00
00
ENDCHAR
STARTCHAR U+3137
ENCODING 12599
SWIDTH 800 0
DWIDTH 8 0
BBX 8 8 0 -2
BITMAP
FE
80
80
80
80
FE
00
00
ENDCHAR
STARTCHAR U+3138
ENCODING 12600
SWIDTH 800 0
DWIDTH 8 0
BBX 8 8 0 -2
BITMAP
FE
90
90
90
90
FE
00
00
ENDCHAR
STARTCHAR U+3139
ENCODING 12601
SWIDTH 800 0
DWIDTH 8 0
BBX 8 8 0 -2
BITMAP
FE
02
FE
80
80
FE
00
00
ENDCHAR
STARTCHAR U+3141
ENCODING 12609
SWIDTH 800 0
DWIDTH 8 0
BBX 8 8 0 -2
BITMAP
FE
82
82
82
82
FE
00
00
ENDCHAR
STARTCHAR U+3142
ENCODING 12610
SWIDTH 800 0
DWIDTH 8 0
BBX 8 8 0 -2
BITMAP
82
82
FE
82
82
FE
00
00
ENDCHAR
STARTCHAR U+3143
ENCODING 12611
SWIDTH 800 0
DWIDTH 8 0
BBX 8 8 0 -2
BITMAP
92
92
FE
92
92
FE
00
00
ENDCHAR
STARTCHAR U+3145
ENCODING 12613
SWIDTH 800 0
DWIDTH 8 0
BBX 8 8 0 -2
BITMAP
10
10
28
28
44
82
00
00
ENDCHAR
STARTCHAR U+3146
ENCODING 12614
SWIDTH 800 0
DWIDTH 8 0
BBX 8 8 0 -2
BITMAP
44
44
44
6C
92
92
00
00
ENDCHAR
STARTCHAR U+3147
ENCODING 12615
SWIDTH 800 0
DWIDTH 8 0
BBX 8 8 0 -2
BITMAP
7C
82
82
82
82
7C
00
00
ENDCHAR
STARTCHAR U+3148
ENCODING 12616
SWIDTH 800 0
DWIDTH 8 0
BBX 8 8 0 -2
BITMAP
FE
10
10
28
44
82
00
00
ENDCHAR
STARTCHAR U+3149
ENCODING 12617
SWIDTH 800 0
DWIDTH 8 0
BBX 8 8 0 -2
BITMAP
FE
44
44
AA
92
92
00
00
ENDCHAR
STARTCHAR U+314A
ENCODING 12618
SWIDTH 800 0
DWIDTH 8 0
BBX 8 8 0 -2
BITMAP
10
FE
10
10
28
C6
00
00
ENDCHAR
STARTCHAR U+314B
ENCODING 12619
SWIDTH 800 0
DWIDTH 8 0
BBX 8 8 0 -2
BITMAP
FE
02
02
7E
02
02
00
00
ENDCHAR
STARTCHAR U+314C
ENCODING 12620
SWIDTH 800 0
DWIDTH 8 0
BBX 8 8 0 -2
BITMAP
FE
80
FE
80
80
FE
00
00
ENDCHAR
STARTCHAR U+314D
ENCODING 12621
SWIDTH 800 0
DWIDTH 8 0
BBX 8 8 0 -2
BITMAP
FE
44
44
44
44
FE
00
00
ENDCHAR
STARTCHAR U+314E
ENCODING 12622
SWIDTH 800 0
DWIDTH 8 0
BBX 8 8 0 -2
BITMAP
10
FE
44
82
82
7C
00
00
ENDCHAR
STARTCHAR U+314F
ENCODING 12623
SWIDTH 800 0
DWIDTH 8 0
BBX 8 8 0 -2
BITMAP
20
20
30
20
20
20
20
00
ENDCHAR
STARTCHAR U+3150
ENCODING 12624
SWIDTH 800 0
DWIDTH 8 0
BBX 8 8 0 -2
BITMAP
28
28
38
28
28
28
28
00
ENDCHAR
STARTCHAR U+3151
ENCODING 12625
SWIDTH 800 0
DWIDTH 8 0
BBX 8 8 0 -2
BITMAP
20
30
20
30
20
20
20
00
ENDCHAR
STARTCHAR U+3152
ENCODING 12626
SWIDTH 800 0
DWIDTH 8 0
BBX 8 8 0 -2
BITMAP
28
38
28
38
28
28
28
00
ENDCHAR
STARTCHAR U+3153
ENCODING 12627
SWIDTH 800 0
DWIDTH 8 0
BBX 8 8 0 -2
BITMAP
10
10
30
10
10
10
10
00
ENDCHAR
STARTCHAR U+3154
ENCODING 12628
SWIDTH 800 0
DWIDTH 8 0
BBX 8 8 0 -2
BITMAP
14
14
34
14
14
14
14
00
ENDCHAR
STARTCHAR U+3155
ENCODING 12629
SWIDTH 800 0
DWIDTH 8 0
BBX 8 8 0 -2
BITMAP
10
30
10
30
10
10
10
00
ENDCHAR
STARTCHAR U+3156
ENCODING 12630
SWIDTH 800 0
DWIDTH 8 0
BBX 8 8 0 -2
BITMAP
14
34
14
34
14
14
14
00
ENDCHAR
STARTCHAR U+3157
ENCODING 12631
SWIDTH 800 0
DWIDTH 8 0
BBX 8 8 0 -2
BITMAP
00
10
10
10
FE
00
00
00
ENDCHAR
STARTCHAR U+3158
ENCODING 12632
SWIDTH 800 0
DWIDTH 8 0
BBX 8 8 0 -2
BITMAP
04
04
06
24
24
FC
04
00
ENDCHAR
STARTCHAR U+3159
ENCODING 12633
SWIDTH 800 0
DWIDTH 8 0
BBX 8 8 0 -2
BITMAP
0A
0E
0A
4A
4A
FA
0A
00
ENDCHAR
STARTCHAR U+315A
ENCODING 12634
SWIDTH 800 0
DWIDTH 8 0
BBX 8 8 0 -2
BITMAP
02
02
02
22
22
FE
02
00
ENDCHAR
STARTCHAR U+315B
ENCODING 12635
SWIDTH 800 0
DWIDTH 8 0
BBX 8 8 0 -2
BITMAP
00
00
28
28
FE
00
00
00
ENDCHAR
STARTCHAR U+315C
ENCODING 12636
SWIDTH 800 0
DWIDTH 8 0
BBX 8 8 0 -2
BITMAP
00
00
FE
10
10
10
00
00
ENDCHAR
STARTCHAR U+315D
ENCODING 12637
SWIDTH 800 0
DWIDTH 8 0
BBX 8 8 0 -2
BITMAP
02
02
02
02
FA
2E
22
00
ENDCHAR
STARTCHAR U+315E
ENCODING 12638
SWIDTH 800 0
DWIDTH 8 0
BBX 8 8 0 -2
BITMAP
0A
0A
0A
0A
FA
2A
2A
00
ENDCHAR
STARTCHAR U+315F
ENCODING 12639
SWIDTH 800 0
DWIDTH 8 0
BBX 8 8 0 -2
BITMAP
02
02
02
02
FE
22
22
00
ENDCHAR
STARTCHAR U+3160
ENCODING 12640
SWIDTH 800 0
DWIDTH 8 0
BBX 8 8 0 -2
BITMAP
00
00
FE
44
44
44
00
00
ENDCHAR
STARTCHAR U+3161
ENCODING 12641
SWIDTH 800 0
DWIDTH 8 0
BBX 8 8 0 -2
BITMAP
00
00
FE
00
00
00
00
00
ENDCHAR
STARTCHAR U+3162
ENCODING 12642
SWIDTH 800 0
DWIDTH 8 0
BBX 8 8 0 -2
BITMAP
02
02
02
02
02
FE
02
00
ENDCHAR
STARTCHAR U+3163
ENCODING 12643
SWIDTH 800 0
DWIDTH 8 0
BBX 8 8 0 -2
BITMAP
10
10
10
10
10
10
10
00
ENDCHAR
ENDFONT